<mxfile host="app.diagrams.net" modified="2023-05-03T05:09:53.001Z" agent="Mozilla/5.0 (Windows NT 10.0; Win64; x64) AppleWebKit/537.36 (KHTML, like Gecko) Chrome/112.0.0.0 Safari/537.36 Edg/112.0.1722.64" etag="fDx_uzQ3Pf-E15lbwStt" version="21.2.6" type="device">
  <diagram name="Page-1" id="13e1069c-82ec-6db2-03f1-153e76fe0fe0">
    <mxGraphModel dx="1434" dy="788" grid="1" gridSize="10" guides="1" tooltips="1" connect="1" arrows="1" fold="1" page="1" pageScale="1" pageWidth="1100" pageHeight="850" background="none" math="0" shadow="0">
      <root>
        <mxCell id="0" />
        <mxCell id="1" parent="0" />
        <mxCell id="7baba1c4bc27f4b0-2" value="FrontEnd" style="shape=umlLifeline;perimeter=lifelinePerimeter;whiteSpace=wrap;html=1;container=1;collapsible=0;recursiveResize=0;outlineConnect=0;rounded=1;shadow=0;comic=0;labelBackgroundColor=none;strokeWidth=1;fontFamily=Verdana;fontSize=12;align=center;" parent="1" vertex="1">
          <mxGeometry x="240" y="80" width="100" height="1300" as="geometry" />
        </mxCell>
        <mxCell id="7baba1c4bc27f4b0-10" value="Sign Up" style="html=1;points=[];perimeter=orthogonalPerimeter;rounded=0;shadow=0;comic=0;labelBackgroundColor=none;strokeWidth=1;fontFamily=Verdana;fontSize=12;align=center;" parent="7baba1c4bc27f4b0-2" vertex="1">
          <mxGeometry x="45" y="100" width="10" height="170" as="geometry" />
        </mxCell>
        <mxCell id="CH1mQGG2WMRYYYk6lB7n-6" value="User clicks&lt;br&gt;Sign up" style="edgeStyle=orthogonalEdgeStyle;rounded=0;orthogonalLoop=1;jettySize=auto;html=1;" edge="1" parent="7baba1c4bc27f4b0-2" source="CH1mQGG2WMRYYYk6lB7n-1" target="7baba1c4bc27f4b0-10">
          <mxGeometry relative="1" as="geometry">
            <Array as="points">
              <mxPoint x="90" y="310" />
              <mxPoint x="90" y="260" />
            </Array>
          </mxGeometry>
        </mxCell>
        <mxCell id="CH1mQGG2WMRYYYk6lB7n-1" value="Login" style="html=1;points=[];perimeter=orthogonalPerimeter;rounded=0;shadow=0;comic=0;labelBackgroundColor=none;strokeWidth=1;fontFamily=Verdana;fontSize=12;align=center;" vertex="1" parent="7baba1c4bc27f4b0-2">
          <mxGeometry x="45" y="300" width="10" height="170" as="geometry" />
        </mxCell>
        <mxCell id="CH1mQGG2WMRYYYk6lB7n-11" value="Registration &lt;br&gt;Failed" style="endArrow=classic;html=1;rounded=0;edgeStyle=orthogonalEdgeStyle;curved=1;" edge="1" parent="7baba1c4bc27f4b0-2" source="7baba1c4bc27f4b0-10" target="7baba1c4bc27f4b0-10">
          <mxGeometry width="50" height="50" relative="1" as="geometry">
            <mxPoint x="120" y="240" as="sourcePoint" />
            <mxPoint x="170" y="190" as="targetPoint" />
            <Array as="points">
              <mxPoint x="120" y="160" />
              <mxPoint x="120" y="220" />
            </Array>
          </mxGeometry>
        </mxCell>
        <mxCell id="CH1mQGG2WMRYYYk6lB7n-12" value="Registration &lt;br&gt;Success" style="endArrow=classic;html=1;rounded=0;edgeStyle=orthogonalEdgeStyle;curved=1;" edge="1" parent="7baba1c4bc27f4b0-2" source="7baba1c4bc27f4b0-10" target="CH1mQGG2WMRYYYk6lB7n-1">
          <mxGeometry width="50" height="50" relative="1" as="geometry">
            <mxPoint x="65" y="150" as="sourcePoint" />
            <mxPoint x="65" y="210" as="targetPoint" />
            <Array as="points">
              <mxPoint y="240" />
              <mxPoint y="320" />
            </Array>
          </mxGeometry>
        </mxCell>
        <mxCell id="CH1mQGG2WMRYYYk6lB7n-21" value="User&lt;br&gt;Redirrect" style="edgeStyle=orthogonalEdgeStyle;rounded=0;orthogonalLoop=1;jettySize=auto;html=1;" edge="1" parent="7baba1c4bc27f4b0-2" source="CH1mQGG2WMRYYYk6lB7n-13" target="CH1mQGG2WMRYYYk6lB7n-16">
          <mxGeometry relative="1" as="geometry">
            <Array as="points">
              <mxPoint x="10" y="650" />
              <mxPoint x="10" y="720" />
            </Array>
          </mxGeometry>
        </mxCell>
        <mxCell id="CH1mQGG2WMRYYYk6lB7n-22" value="User&lt;br&gt;Redirrect" style="edgeStyle=orthogonalEdgeStyle;rounded=0;orthogonalLoop=1;jettySize=auto;html=1;" edge="1" parent="7baba1c4bc27f4b0-2" source="CH1mQGG2WMRYYYk6lB7n-13" target="CH1mQGG2WMRYYYk6lB7n-17">
          <mxGeometry relative="1" as="geometry">
            <Array as="points">
              <mxPoint x="-20" y="630" />
              <mxPoint x="-20" y="920" />
            </Array>
          </mxGeometry>
        </mxCell>
        <mxCell id="CH1mQGG2WMRYYYk6lB7n-13" value="Home&lt;br&gt;Page" style="html=1;points=[];perimeter=orthogonalPerimeter;rounded=0;shadow=0;comic=0;labelBackgroundColor=none;strokeWidth=1;fontFamily=Verdana;fontSize=12;align=center;" vertex="1" parent="7baba1c4bc27f4b0-2">
          <mxGeometry x="45" y="500" width="10" height="170" as="geometry" />
        </mxCell>
        <mxCell id="CH1mQGG2WMRYYYk6lB7n-14" value="Login&lt;br&gt;Failed" style="endArrow=classic;html=1;rounded=0;edgeStyle=orthogonalEdgeStyle;curved=1;" edge="1" parent="7baba1c4bc27f4b0-2">
          <mxGeometry width="50" height="50" relative="1" as="geometry">
            <mxPoint x="55" y="355" as="sourcePoint" />
            <mxPoint x="55" y="415" as="targetPoint" />
            <Array as="points">
              <mxPoint x="100" y="355" />
              <mxPoint x="100" y="415" />
            </Array>
          </mxGeometry>
        </mxCell>
        <mxCell id="CH1mQGG2WMRYYYk6lB7n-15" value="Login&lt;br&gt;Success" style="endArrow=classic;html=1;rounded=0;edgeStyle=orthogonalEdgeStyle;curved=1;" edge="1" parent="7baba1c4bc27f4b0-2">
          <mxGeometry width="50" height="50" relative="1" as="geometry">
            <mxPoint x="45" y="440" as="sourcePoint" />
            <mxPoint x="45" y="520" as="targetPoint" />
            <Array as="points">
              <mxPoint y="440" />
              <mxPoint y="520" />
            </Array>
          </mxGeometry>
        </mxCell>
        <mxCell id="CH1mQGG2WMRYYYk6lB7n-16" value="Suggest&lt;br&gt;Movies" style="html=1;points=[];perimeter=orthogonalPerimeter;rounded=0;shadow=0;comic=0;labelBackgroundColor=none;strokeWidth=1;fontFamily=Verdana;fontSize=12;align=center;" vertex="1" parent="7baba1c4bc27f4b0-2">
          <mxGeometry x="45" y="700" width="10" height="170" as="geometry" />
        </mxCell>
        <mxCell id="CH1mQGG2WMRYYYk6lB7n-17" value="Search&lt;br&gt;Movies" style="html=1;points=[];perimeter=orthogonalPerimeter;rounded=0;shadow=0;comic=0;labelBackgroundColor=none;strokeWidth=1;fontFamily=Verdana;fontSize=12;align=center;" vertex="1" parent="7baba1c4bc27f4b0-2">
          <mxGeometry x="45" y="900" width="10" height="170" as="geometry" />
        </mxCell>
        <mxCell id="CH1mQGG2WMRYYYk6lB7n-18" value="Movie&lt;br&gt;Page" style="html=1;points=[];perimeter=orthogonalPerimeter;rounded=0;shadow=0;comic=0;labelBackgroundColor=none;strokeWidth=1;fontFamily=Verdana;fontSize=12;align=center;" vertex="1" parent="7baba1c4bc27f4b0-2">
          <mxGeometry x="45" y="1100" width="10" height="170" as="geometry" />
        </mxCell>
        <mxCell id="7baba1c4bc27f4b0-3" value="Backend" style="shape=umlLifeline;perimeter=lifelinePerimeter;whiteSpace=wrap;html=1;container=1;collapsible=0;recursiveResize=0;outlineConnect=0;rounded=1;shadow=0;comic=0;labelBackgroundColor=none;strokeWidth=1;fontFamily=Verdana;fontSize=12;align=center;" parent="1" vertex="1">
          <mxGeometry x="400" y="80" width="100" height="1300" as="geometry" />
        </mxCell>
        <mxCell id="7baba1c4bc27f4b0-13" value="Auth&lt;br&gt;Controller" style="html=1;points=[];perimeter=orthogonalPerimeter;rounded=0;shadow=0;comic=0;labelBackgroundColor=none;strokeWidth=1;fontFamily=Verdana;fontSize=12;align=center;" parent="7baba1c4bc27f4b0-3" vertex="1">
          <mxGeometry x="45" y="100" width="10" height="570" as="geometry" />
        </mxCell>
        <mxCell id="CH1mQGG2WMRYYYk6lB7n-31" value="Movie&lt;br&gt;Controller" style="html=1;points=[];perimeter=orthogonalPerimeter;rounded=0;shadow=0;comic=0;labelBackgroundColor=none;strokeWidth=1;fontFamily=Verdana;fontSize=12;align=center;" vertex="1" parent="7baba1c4bc27f4b0-3">
          <mxGeometry x="45" y="900" width="10" height="250" as="geometry" />
        </mxCell>
        <mxCell id="CH1mQGG2WMRYYYk6lB7n-32" value="Rating&lt;br&gt;Controller" style="html=1;points=[];perimeter=orthogonalPerimeter;rounded=0;shadow=0;comic=0;labelBackgroundColor=none;strokeWidth=1;fontFamily=Verdana;fontSize=12;align=center;" vertex="1" parent="7baba1c4bc27f4b0-3">
          <mxGeometry x="45" y="1170" width="10" height="100" as="geometry" />
        </mxCell>
        <mxCell id="CH1mQGG2WMRYYYk6lB7n-33" value="Recommender&lt;br&gt;Controller" style="html=1;points=[];perimeter=orthogonalPerimeter;rounded=0;shadow=0;comic=0;labelBackgroundColor=none;strokeWidth=1;fontFamily=Verdana;fontSize=12;align=center;" vertex="1" parent="7baba1c4bc27f4b0-3">
          <mxGeometry x="45" y="700" width="10" height="170" as="geometry" />
        </mxCell>
        <mxCell id="7baba1c4bc27f4b0-4" value="Database" style="shape=umlLifeline;perimeter=lifelinePerimeter;whiteSpace=wrap;html=1;container=1;collapsible=0;recursiveResize=0;outlineConnect=0;rounded=1;shadow=0;comic=0;labelBackgroundColor=none;strokeWidth=1;fontFamily=Verdana;fontSize=12;align=center;" parent="1" vertex="1">
          <mxGeometry x="540" y="80" width="100" height="1300" as="geometry" />
        </mxCell>
        <mxCell id="7baba1c4bc27f4b0-16" value="User&lt;br&gt;Collection" style="html=1;points=[];perimeter=orthogonalPerimeter;rounded=0;shadow=0;comic=0;labelBackgroundColor=none;strokeWidth=1;fontFamily=Verdana;fontSize=12;align=center;" parent="7baba1c4bc27f4b0-4" vertex="1">
          <mxGeometry x="45" y="100" width="10" height="250" as="geometry" />
        </mxCell>
        <mxCell id="CH1mQGG2WMRYYYk6lB7n-23" value="JWT&lt;br&gt;Token&lt;br&gt;Collection" style="html=1;points=[];perimeter=orthogonalPerimeter;rounded=0;shadow=0;comic=0;labelBackgroundColor=none;strokeWidth=1;fontFamily=Verdana;fontSize=12;align=center;" vertex="1" parent="7baba1c4bc27f4b0-4">
          <mxGeometry x="45" y="380" width="10" height="150" as="geometry" />
        </mxCell>
        <mxCell id="CH1mQGG2WMRYYYk6lB7n-34" value="Movies&lt;br&gt;Collection" style="html=1;points=[];perimeter=orthogonalPerimeter;rounded=0;shadow=0;comic=0;labelBackgroundColor=none;strokeWidth=1;fontFamily=Verdana;fontSize=12;align=center;" vertex="1" parent="7baba1c4bc27f4b0-4">
          <mxGeometry x="45" y="840" width="10" height="310" as="geometry" />
        </mxCell>
        <mxCell id="CH1mQGG2WMRYYYk6lB7n-42" value="Recommendation&lt;br&gt;System&lt;br&gt;Model&lt;br&gt;Collection" style="html=1;points=[];perimeter=orthogonalPerimeter;rounded=0;shadow=0;comic=0;labelBackgroundColor=none;strokeWidth=1;fontFamily=Verdana;fontSize=12;align=center;" vertex="1" parent="7baba1c4bc27f4b0-4">
          <mxGeometry x="45" y="560" width="10" height="250" as="geometry" />
        </mxCell>
        <mxCell id="CH1mQGG2WMRYYYk6lB7n-46" value="Ratings&lt;br&gt;Collection" style="html=1;points=[];perimeter=orthogonalPerimeter;rounded=0;shadow=0;comic=0;labelBackgroundColor=none;strokeWidth=1;fontFamily=Verdana;fontSize=12;align=center;" vertex="1" parent="7baba1c4bc27f4b0-4">
          <mxGeometry x="45" y="1170" width="10" height="100" as="geometry" />
        </mxCell>
        <mxCell id="7baba1c4bc27f4b0-8" value="User" style="shape=umlLifeline;perimeter=lifelinePerimeter;whiteSpace=wrap;html=1;container=1;collapsible=0;recursiveResize=0;outlineConnect=0;rounded=1;shadow=0;comic=0;labelBackgroundColor=none;strokeWidth=1;fontFamily=Verdana;fontSize=12;align=center;" parent="1" vertex="1">
          <mxGeometry x="100" y="80" width="100" height="1300" as="geometry" />
        </mxCell>
        <mxCell id="owGPaouUWZI6I00EfRdI-1" value="" style="shape=umlActor;verticalLabelPosition=bottom;verticalAlign=top;html=1;outlineConnect=0;" parent="1" vertex="1">
          <mxGeometry x="135" y="17.5" width="30" height="60" as="geometry" />
        </mxCell>
        <mxCell id="CH1mQGG2WMRYYYk6lB7n-2" value="Insert Login&lt;br&gt;Credential" style="endArrow=classic;html=1;rounded=0;" edge="1" parent="1" source="7baba1c4bc27f4b0-8" target="CH1mQGG2WMRYYYk6lB7n-1">
          <mxGeometry width="50" height="50" relative="1" as="geometry">
            <mxPoint x="-50" y="550" as="sourcePoint" />
            <mxPoint y="500" as="targetPoint" />
            <Array as="points">
              <mxPoint x="260" y="420" />
            </Array>
          </mxGeometry>
        </mxCell>
        <mxCell id="CH1mQGG2WMRYYYk6lB7n-3" value="Request to&lt;br&gt;create JWT token" style="endArrow=classic;html=1;rounded=0;" edge="1" parent="1" source="CH1mQGG2WMRYYYk6lB7n-1" target="7baba1c4bc27f4b0-13">
          <mxGeometry width="50" height="50" relative="1" as="geometry">
            <mxPoint x="340" y="570" as="sourcePoint" />
            <mxPoint x="390" y="520" as="targetPoint" />
            <Array as="points">
              <mxPoint x="420" y="420" />
            </Array>
            <mxPoint as="offset" />
          </mxGeometry>
        </mxCell>
        <mxCell id="CH1mQGG2WMRYYYk6lB7n-4" value="Check&lt;br&gt;Credential" style="rounded=0;orthogonalLoop=1;jettySize=auto;html=1;startArrow=block;startFill=1;" edge="1" parent="1" source="7baba1c4bc27f4b0-13" target="7baba1c4bc27f4b0-16">
          <mxGeometry relative="1" as="geometry">
            <Array as="points">
              <mxPoint x="560" y="420" />
            </Array>
          </mxGeometry>
        </mxCell>
        <mxCell id="CH1mQGG2WMRYYYk6lB7n-7" value="Request to&lt;br&gt;Registration" style="rounded=0;orthogonalLoop=1;jettySize=auto;html=1;" edge="1" parent="1" source="7baba1c4bc27f4b0-10" target="7baba1c4bc27f4b0-13">
          <mxGeometry relative="1" as="geometry">
            <Array as="points">
              <mxPoint x="400" y="200" />
            </Array>
          </mxGeometry>
        </mxCell>
        <mxCell id="CH1mQGG2WMRYYYk6lB7n-8" value="Insert Requested&lt;br&gt;Details" style="endArrow=classic;html=1;rounded=0;" edge="1" parent="1" source="7baba1c4bc27f4b0-8" target="7baba1c4bc27f4b0-10">
          <mxGeometry width="50" height="50" relative="1" as="geometry">
            <mxPoint x="120" y="330" as="sourcePoint" />
            <mxPoint x="170" y="280" as="targetPoint" />
            <Array as="points">
              <mxPoint x="240" y="200" />
            </Array>
          </mxGeometry>
        </mxCell>
        <mxCell id="CH1mQGG2WMRYYYk6lB7n-10" value="Check Email&lt;br&gt;Availability" style="endArrow=classic;html=1;rounded=0;startArrow=block;startFill=1;" edge="1" parent="1" source="7baba1c4bc27f4b0-13" target="7baba1c4bc27f4b0-16">
          <mxGeometry width="50" height="50" relative="1" as="geometry">
            <mxPoint x="650" y="430" as="sourcePoint" />
            <mxPoint x="700" y="380" as="targetPoint" />
            <Array as="points">
              <mxPoint x="540" y="200" />
            </Array>
          </mxGeometry>
        </mxCell>
        <mxCell id="CH1mQGG2WMRYYYk6lB7n-25" value="Response&lt;br&gt;Result" style="rounded=0;orthogonalLoop=1;jettySize=auto;html=1;" edge="1" parent="1" source="7baba1c4bc27f4b0-13" target="7baba1c4bc27f4b0-10">
          <mxGeometry relative="1" as="geometry">
            <Array as="points">
              <mxPoint x="390" y="230" />
            </Array>
          </mxGeometry>
        </mxCell>
        <mxCell id="CH1mQGG2WMRYYYk6lB7n-26" value="New User" style="endArrow=classic;html=1;rounded=0;" edge="1" parent="1" source="7baba1c4bc27f4b0-13" target="7baba1c4bc27f4b0-16">
          <mxGeometry width="50" height="50" relative="1" as="geometry">
            <mxPoint x="490" y="310" as="sourcePoint" />
            <mxPoint x="540" y="260" as="targetPoint" />
            <Array as="points">
              <mxPoint x="550" y="230" />
            </Array>
          </mxGeometry>
        </mxCell>
        <mxCell id="CH1mQGG2WMRYYYk6lB7n-27" value="New Token" style="endArrow=classic;html=1;rounded=0;" edge="1" parent="1" source="7baba1c4bc27f4b0-13" target="CH1mQGG2WMRYYYk6lB7n-23">
          <mxGeometry width="50" height="50" relative="1" as="geometry">
            <mxPoint x="510" y="540" as="sourcePoint" />
            <mxPoint x="560" y="490" as="targetPoint" />
            <Array as="points">
              <mxPoint x="540" y="480" />
            </Array>
          </mxGeometry>
        </mxCell>
        <mxCell id="CH1mQGG2WMRYYYk6lB7n-28" value="Request to&lt;br&gt;check JWT Token" style="endArrow=classic;html=1;rounded=0;" edge="1" parent="1" source="CH1mQGG2WMRYYYk6lB7n-13" target="7baba1c4bc27f4b0-13">
          <mxGeometry width="50" height="50" relative="1" as="geometry">
            <mxPoint x="310" y="650" as="sourcePoint" />
            <mxPoint x="360" y="600" as="targetPoint" />
            <Array as="points">
              <mxPoint x="400" y="600" />
            </Array>
          </mxGeometry>
        </mxCell>
        <mxCell id="CH1mQGG2WMRYYYk6lB7n-29" value="Check Token&lt;br&gt;Expire Date" style="endArrow=classic;html=1;rounded=0;startArrow=block;startFill=1;" edge="1" parent="1" source="7baba1c4bc27f4b0-13" target="CH1mQGG2WMRYYYk6lB7n-23">
          <mxGeometry width="50" height="50" relative="1" as="geometry">
            <mxPoint x="445" y="640" as="sourcePoint" />
            <mxPoint x="595" y="640" as="targetPoint" />
            <Array as="points">
              <mxPoint x="470" y="600" />
              <mxPoint x="550" y="600" />
            </Array>
          </mxGeometry>
        </mxCell>
        <mxCell id="CH1mQGG2WMRYYYk6lB7n-30" value="Response&lt;br&gt;Result" style="endArrow=classic;html=1;rounded=0;" edge="1" parent="1" source="7baba1c4bc27f4b0-13" target="CH1mQGG2WMRYYYk6lB7n-13">
          <mxGeometry width="50" height="50" relative="1" as="geometry">
            <mxPoint x="330" y="710" as="sourcePoint" />
            <mxPoint x="380" y="660" as="targetPoint" />
            <Array as="points">
              <mxPoint x="400" y="630" />
            </Array>
          </mxGeometry>
        </mxCell>
        <mxCell id="CH1mQGG2WMRYYYk6lB7n-35" value="Request Movies&lt;br&gt;Suggestion" style="endArrow=classic;html=1;rounded=0;" edge="1" parent="1" source="CH1mQGG2WMRYYYk6lB7n-16" target="CH1mQGG2WMRYYYk6lB7n-33">
          <mxGeometry width="50" height="50" relative="1" as="geometry">
            <mxPoint x="350" y="850" as="sourcePoint" />
            <mxPoint x="400" y="800" as="targetPoint" />
            <Array as="points">
              <mxPoint x="390" y="800" />
            </Array>
          </mxGeometry>
        </mxCell>
        <mxCell id="CH1mQGG2WMRYYYk6lB7n-36" value="Take Movies Data&lt;br&gt;By ID" style="endArrow=classic;html=1;rounded=0;startArrow=block;startFill=1;" edge="1" parent="1" source="CH1mQGG2WMRYYYk6lB7n-33" target="CH1mQGG2WMRYYYk6lB7n-34">
          <mxGeometry width="50" height="50" relative="1" as="geometry">
            <mxPoint x="670" y="830" as="sourcePoint" />
            <mxPoint x="720" y="780" as="targetPoint" />
            <Array as="points">
              <mxPoint x="540" y="940" />
            </Array>
          </mxGeometry>
        </mxCell>
        <mxCell id="CH1mQGG2WMRYYYk6lB7n-37" value="Response Movies&lt;br&gt;WIth Order" style="endArrow=classic;html=1;rounded=0;" edge="1" parent="1" source="CH1mQGG2WMRYYYk6lB7n-33" target="CH1mQGG2WMRYYYk6lB7n-16">
          <mxGeometry width="50" height="50" relative="1" as="geometry">
            <mxPoint x="360" y="940" as="sourcePoint" />
            <mxPoint x="410" y="890" as="targetPoint" />
            <Array as="points">
              <mxPoint x="380" y="920" />
            </Array>
          </mxGeometry>
        </mxCell>
        <mxCell id="CH1mQGG2WMRYYYk6lB7n-38" value="Request Movies&lt;br&gt;Search" style="endArrow=classic;html=1;rounded=0;" edge="1" parent="1" source="CH1mQGG2WMRYYYk6lB7n-17" target="CH1mQGG2WMRYYYk6lB7n-31">
          <mxGeometry width="50" height="50" relative="1" as="geometry">
            <mxPoint x="210" y="1130" as="sourcePoint" />
            <mxPoint x="260" y="1080" as="targetPoint" />
            <Array as="points">
              <mxPoint x="400" y="1030" />
            </Array>
          </mxGeometry>
        </mxCell>
        <mxCell id="CH1mQGG2WMRYYYk6lB7n-39" value="User Type&lt;br&gt;Search Text" style="endArrow=classic;html=1;rounded=0;" edge="1" parent="1" source="7baba1c4bc27f4b0-8" target="CH1mQGG2WMRYYYk6lB7n-17">
          <mxGeometry width="50" height="50" relative="1" as="geometry">
            <mxPoint x="180" y="1100" as="sourcePoint" />
            <mxPoint x="230" y="1050" as="targetPoint" />
            <Array as="points">
              <mxPoint x="250" y="1030" />
            </Array>
          </mxGeometry>
        </mxCell>
        <mxCell id="CH1mQGG2WMRYYYk6lB7n-40" value="Take Movies Data&lt;br&gt;By Title" style="endArrow=classic;html=1;rounded=0;startArrow=block;startFill=1;" edge="1" parent="1" source="CH1mQGG2WMRYYYk6lB7n-31" target="CH1mQGG2WMRYYYk6lB7n-34">
          <mxGeometry width="50" height="50" relative="1" as="geometry">
            <mxPoint x="500" y="1050" as="sourcePoint" />
            <mxPoint x="550" y="1000" as="targetPoint" />
            <Array as="points">
              <mxPoint x="550" y="1030" />
            </Array>
          </mxGeometry>
        </mxCell>
        <mxCell id="CH1mQGG2WMRYYYk6lB7n-41" value="Request Movie&lt;br&gt;Detail" style="endArrow=classic;html=1;rounded=0;" edge="1" parent="1" source="CH1mQGG2WMRYYYk6lB7n-18" target="CH1mQGG2WMRYYYk6lB7n-31">
          <mxGeometry width="50" height="50" relative="1" as="geometry">
            <mxPoint x="305" y="1040" as="sourcePoint" />
            <mxPoint x="455" y="1040" as="targetPoint" />
            <Array as="points">
              <mxPoint x="320" y="1190" />
              <mxPoint x="410" y="1190" />
            </Array>
          </mxGeometry>
        </mxCell>
        <mxCell id="CH1mQGG2WMRYYYk6lB7n-43" value="Load Model&lt;br&gt;From Database" style="endArrow=classic;html=1;rounded=0;startArrow=block;startFill=1;" edge="1" parent="1" source="CH1mQGG2WMRYYYk6lB7n-33" target="CH1mQGG2WMRYYYk6lB7n-42">
          <mxGeometry width="50" height="50" relative="1" as="geometry">
            <mxPoint x="510" y="860" as="sourcePoint" />
            <mxPoint x="560" y="810" as="targetPoint" />
            <Array as="points">
              <mxPoint x="550" y="820" />
            </Array>
          </mxGeometry>
        </mxCell>
        <mxCell id="CH1mQGG2WMRYYYk6lB7n-44" value="Take Movies Data&lt;br&gt;By ID" style="endArrow=classic;html=1;rounded=0;startArrow=block;startFill=1;" edge="1" parent="1" source="CH1mQGG2WMRYYYk6lB7n-31" target="CH1mQGG2WMRYYYk6lB7n-34">
          <mxGeometry width="50" height="50" relative="1" as="geometry">
            <mxPoint x="465" y="950" as="sourcePoint" />
            <mxPoint x="595" y="950" as="targetPoint" />
            <Array as="points">
              <mxPoint x="540" y="1190" />
            </Array>
          </mxGeometry>
        </mxCell>
        <mxCell id="CH1mQGG2WMRYYYk6lB7n-45" value="Response Detail" style="endArrow=classic;html=1;rounded=0;" edge="1" parent="1" source="CH1mQGG2WMRYYYk6lB7n-31" target="CH1mQGG2WMRYYYk6lB7n-18">
          <mxGeometry width="50" height="50" relative="1" as="geometry">
            <mxPoint x="360" y="1290" as="sourcePoint" />
            <mxPoint x="410" y="1240" as="targetPoint" />
            <Array as="points">
              <mxPoint x="420" y="1220" />
            </Array>
          </mxGeometry>
        </mxCell>
        <mxCell id="CH1mQGG2WMRYYYk6lB7n-47" value="Request to&lt;br&gt;Create&lt;br&gt;Read&lt;br&gt;Update&lt;br&gt;Delelte" style="endArrow=classic;html=1;rounded=0;" edge="1" parent="1" source="CH1mQGG2WMRYYYk6lB7n-18" target="CH1mQGG2WMRYYYk6lB7n-32">
          <mxGeometry y="-15" width="50" height="50" relative="1" as="geometry">
            <mxPoint x="380" y="1360" as="sourcePoint" />
            <mxPoint x="430" y="1310" as="targetPoint" />
            <mxPoint as="offset" />
          </mxGeometry>
        </mxCell>
        <mxCell id="CH1mQGG2WMRYYYk6lB7n-49" value="Handle Ratings&lt;br&gt;Data" style="endArrow=classic;html=1;rounded=0;startArrow=block;startFill=1;" edge="1" parent="1" source="CH1mQGG2WMRYYYk6lB7n-32" target="CH1mQGG2WMRYYYk6lB7n-46">
          <mxGeometry width="50" height="50" relative="1" as="geometry">
            <mxPoint x="435" y="1270" as="sourcePoint" />
            <mxPoint x="585" y="1270" as="targetPoint" />
            <mxPoint as="offset" />
            <Array as="points">
              <mxPoint x="540" y="1270" />
            </Array>
          </mxGeometry>
        </mxCell>
        <mxCell id="CH1mQGG2WMRYYYk6lB7n-50" value="Response Result" style="endArrow=classic;html=1;rounded=0;" edge="1" parent="1" source="CH1mQGG2WMRYYYk6lB7n-32" target="CH1mQGG2WMRYYYk6lB7n-18">
          <mxGeometry width="50" height="50" relative="1" as="geometry">
            <mxPoint x="260" y="1410" as="sourcePoint" />
            <mxPoint x="310" y="1360" as="targetPoint" />
            <Array as="points">
              <mxPoint x="330" y="1330" />
            </Array>
          </mxGeometry>
        </mxCell>
      </root>
    </mxGraphModel>
  </diagram>
</mxfile>
